<svg xmlns="http://www.w3.org/2000/svg" viewBox="0 0 38 38"><title>Asset 2</title><g id="Layer_2" data-name="Layer 2"><g id="Layer_1-2" data-name="Layer 1"><path d="M14.55,38H14.4L14,37.85c-.9-.34-1.82-.62-2.7-1a18.7,18.7,0,0,1-6.83-5.39A19.94,19.94,0,0,1,.3,22.27c-.14-.79-.2-1.59-.3-2.38v-2c0-.12.06-.24.07-.36a18,18,0,0,1,.8-4.17A19,19,0,0,1,21.23.14a18.51,18.51,0,0,1,10.67,5A18.65,18.65,0,0,1,38,17.68a19,19,0,0,1-1.14,8,20,20,0,0,1-5,7.64,18.19,18.19,0,0,1-5.78,3.82c-.81.32-1.64.58-2.46.88h-.15c0-2.59,0-5.17,0-7.76a4.44,4.44,0,0,0-1-3c-.14-.17-.27-.37-.37-.52,1-.29,2-.52,2.89-.87a8.14,8.14,0,0,0,3.82-12.35,1.64,1.64,0,0,1-.29-1.74,1.92,1.92,0,0,0,.08-.55,7.43,7.43,0,0,0-.49-3.39,6.1,6.1,0,0,0-3.26,1c-.43.24-.86.48-1.28.74a1,1,0,0,1-.84.12,14.17,14.17,0,0,0-7.23-.06,1.64,1.64,0,0,1-1.38-.21A7.82,7.82,0,0,0,9.9,7.83a6.89,6.89,0,0,0-.31,4.51.78.78,0,0,1-.13.72,8.4,8.4,0,0,0-1.37,7.66,7.87,7.87,0,0,0,5.55,5.4c.73.24,1.49.4,2.24.59a1,1,0,0,1,0,.1,5.18,5.18,0,0,0-1.19,2.4.33.33,0,0,1-.15.18,2.35,2.35,0,0,1-2.48-.3,9.42,9.42,0,0,1-.84-1,16,16,0,0,0-1.5-1.57,3.26,3.26,0,0,0-2.45-.72L7.43,28a1.78,1.78,0,0,1,1.32.65,11.26,11.26,0,0,1,.85,1.11,4.51,4.51,0,0,0,4.17,2.1c.25,0,.5-.06.78-.09Z"/></g></g></svg>